<svg width="18" height="19" viewBox="0 0 18 19" fill="none" xmlns="http://www.w3.org/2000/svg">
<path d="M8.6983 9.51296C9.06842 9.51296 9.43492 9.43914 9.77686 9.29572C10.1188 9.15229 10.4295 8.94208 10.6912 8.67707C10.9529 8.41206 11.1605 8.09744 11.3022 7.75119C11.4438 7.40494 11.5167 7.03382 11.5167 6.65904C11.5167 6.28426 11.4438 5.91315 11.3022 5.5669C11.1605 5.22064 10.9529 4.90603 10.6912 4.64102C10.4295 4.37601 10.1188 4.16579 9.77686 4.02237C9.43492 3.87894 9.06842 3.80513 8.6983 3.80513C7.95082 3.80513 7.23394 4.10581 6.70539 4.64102C6.17684 5.17623 5.8799 5.90214 5.8799 6.65904C5.8799 7.41595 6.17684 8.14185 6.70539 8.67707C7.23394 9.21228 7.95082 9.51296 8.6983 9.51296ZM8.6983 10.4643C7.70165 10.4643 6.74582 10.0634 6.04109 9.34974C5.33635 8.63612 4.94043 7.66825 4.94043 6.65904C4.94043 5.64983 5.33635 4.68196 6.04109 3.96834C6.74582 3.25473 7.70165 2.85382 8.6983 2.85382C9.69495 2.85382 10.6508 3.25473 11.3555 3.96834C12.0603 4.68196 12.4562 5.64983 12.4562 6.65904C12.4562 7.66825 12.0603 8.63612 11.3555 9.34974C10.6508 10.0634 9.69495 10.4643 8.6983 10.4643ZM8.20226 11.4156C7.11423 11.4155 6.04767 11.7222 5.1221 12.3014C4.19653 12.8806 3.44852 13.7093 2.96191 14.6947L2.44332 15.7469C2.37177 15.8919 2.33799 16.053 2.34519 16.2149C2.35239 16.3768 2.40034 16.5342 2.48448 16.6721C2.56861 16.81 2.68615 16.9238 2.82594 17.0028C2.96573 17.0818 3.12313 17.1233 3.28321 17.1234H14.1134C14.2735 17.1233 14.4309 17.0818 14.5707 17.0028C14.7105 16.9238 14.828 16.81 14.9121 16.6721C14.9963 16.5342 15.0442 16.3768 15.0514 16.2149C15.0586 16.053 15.0248 15.8919 14.9533 15.7469L14.4347 14.6947C13.9481 13.7093 13.2001 12.8806 12.2745 12.3014C11.3489 11.7222 10.2824 11.4155 9.19434 11.4156H8.20226ZM8.20226 10.4643H9.19434C10.4568 10.4643 11.6943 10.8203 12.7682 11.4924C13.8421 12.1645 14.71 13.1261 15.2746 14.2695L15.7941 15.3216C15.9373 15.6118 16.0048 15.9342 15.9904 16.2582C15.9759 16.5822 15.8798 16.8971 15.7113 17.1729C15.5428 17.4488 15.3075 17.6764 15.0276 17.8343C14.7478 17.9921 14.4328 18.0749 14.1125 18.0747H3.28415C2.96391 18.0747 2.649 17.9918 2.36929 17.8339C2.08959 17.676 1.85438 17.4483 1.68599 17.1725C1.51761 16.8967 1.42164 16.5819 1.40719 16.2579C1.39274 15.934 1.46029 15.6117 1.60344 15.3216L2.12202 14.2695C2.68661 13.1261 3.55447 12.1645 4.62838 11.4924C5.70229 10.8203 6.9398 10.4643 8.20226 10.4643Z" fill="white"/>
<path d="M3.06156 8.56091V10.0459L1.80924 9.68915C1.35102 9.5254 0.954229 9.22177 0.673567 8.8201C0.392905 8.41843 0.242188 7.9385 0.242188 7.44645C0.242187 6.95441 0.392905 6.47448 0.673567 6.07281C0.954229 5.67114 1.35102 5.3675 1.80924 5.20375L2.3222 5.02015C2.68267 3.58472 3.50527 2.31185 4.65999 1.40271C5.81471 0.493571 7.23569 0 8.69839 0C10.1611 0 11.5821 0.493571 12.7368 1.40271C13.8915 2.31185 14.7141 3.58472 15.0746 5.02015L15.5875 5.20375C16.0458 5.3675 16.4426 5.67114 16.7232 6.07281C17.0039 6.47448 17.1546 6.95441 17.1546 7.44645C17.1546 7.9385 17.0039 8.41843 16.7232 8.8201C16.4426 9.22177 16.0458 9.5254 15.5875 9.68915L14.3352 10.0459V6.6583C14.3352 5.14449 13.7413 3.69268 12.6842 2.62226C11.6271 1.55183 10.1934 0.950473 8.69839 0.950473C7.20341 0.950473 5.76966 1.55183 4.71255 2.62226C3.65544 3.69268 3.06156 5.14449 3.06156 6.6583V8.56091ZM15.2747 6.10083V8.79302C15.55 8.69497 15.7884 8.51282 15.957 8.2717C16.1257 8.03058 16.2163 7.7424 16.2163 7.44693C16.2163 7.15146 16.1257 6.86327 15.957 6.62216C15.7884 6.38104 15.55 6.19888 15.2747 6.10083ZM2.12209 6.10083C1.84683 6.19888 1.60841 6.38104 1.43976 6.62216C1.2711 6.86327 1.18052 7.15146 1.18052 7.44693C1.18052 7.7424 1.2711 8.03058 1.43976 8.2717C1.60841 8.51282 1.84683 8.69497 2.12209 8.79302V6.10083Z" fill="white"/>
</svg>
