<svg width="21" height="19" viewBox="0 0 21 19" fill="none" xmlns="http://www.w3.org/2000/svg">
<path d="M7.16704 12.734H2.52157V1.54281H18.2082V5.98704C18.2082 6.19101 18.2908 6.38664 18.4378 6.53087C18.5847 6.67511 18.784 6.75614 18.9919 6.75614C19.2001 6.75614 19.3999 6.67526 19.5476 6.53116C19.6953 6.38705 19.7789 6.19144 19.7802 5.98704V0H0.935547V14.2768H7.16704C7.3753 14.2756 7.57461 14.1935 7.72144 14.0485C7.86826 13.9036 7.95067 13.7075 7.95067 13.5031C7.95067 13.2991 7.86811 13.1035 7.72115 12.9592C7.57419 12.815 7.37487 12.734 7.16704 12.734Z" fill="white"/>
<path d="M8.18492 16.0136H5.22405C4.79127 16.0136 4.44043 16.358 4.44043 16.7827V16.7873C4.44043 17.2121 4.79127 17.5564 5.22405 17.5564H8.18492C8.61771 17.5564 8.96855 17.2121 8.96855 16.7873V16.7827C8.96855 16.358 8.61771 16.0136 8.18492 16.0136Z" fill="white"/>
<path d="M14.007 10.4587C13.6437 10.6558 13.3483 10.9543 13.158 11.3163C12.9676 11.6783 12.891 12.0875 12.9378 12.4923C12.9846 12.897 13.1527 13.2791 13.4208 13.59C13.6889 13.901 14.045 14.1269 14.444 14.2391C14.8429 14.3514 15.2669 14.3449 15.6621 14.2206C16.0574 14.0963 16.4061 13.8597 16.6643 13.5407C16.9225 13.2217 17.0784 12.8348 17.1124 12.4288C17.1464 12.0228 17.0569 11.6161 16.8552 11.26C16.7221 11.0236 16.5427 10.8153 16.3274 10.6471C16.112 10.4788 15.865 10.3539 15.6005 10.2795C15.3359 10.205 15.059 10.1826 14.7855 10.2133C14.5121 10.2441 14.2475 10.3274 14.007 10.4587Z" fill="white"/>
<path d="M19.663 13.061C19.7003 12.8648 19.7238 12.6663 19.7334 12.4669V12.3978C19.7427 12.1346 19.7286 11.8711 19.6911 11.6103L20.578 10.7675L21.0003 10.3668V10.3392C21.0003 10.3116 20.9722 10.2517 20.9534 10.2056C20.9346 10.1596 20.9158 10.0997 20.8924 10.0445C20.8361 9.89708 20.7751 9.75431 20.7094 9.61615C20.6859 9.5747 20.6671 9.53326 20.6484 9.49181L20.5264 9.26614C20.4607 9.15561 20.395 9.04508 20.3199 8.93455C20.2448 8.82402 20.1463 8.67665 20.0524 8.5523L19.9445 8.41414L19.8507 8.30361V8.28058L19.2829 8.42335L18.0816 8.7181C17.9333 8.58995 17.7765 8.47149 17.6124 8.36348L17.4529 8.2898L17.3355 8.22532C17.1591 8.12791 16.9756 8.04325 16.7865 7.97202L16.4862 6.78843L16.3454 6.23118H16.3173C16.2704 6.23118 16.2234 6.20815 16.1765 6.20355L15.9982 6.17131C15.8434 6.14828 15.6885 6.12986 15.529 6.11604C15.3117 6.10455 15.094 6.10455 14.8767 6.11604H14.5529L14.2479 6.14828L14.0743 6.17131L13.9289 6.19434H13.9007L13.7412 6.74698L13.3986 7.91676C13.1474 8.00582 12.9041 8.11519 12.6713 8.24374L12.6103 8.27598C12.4364 8.38002 12.2688 8.49381 12.1082 8.61678L10.9304 8.2898L10.3673 8.12861V8.15163L10.2688 8.25756L10.1562 8.39111C10.0952 8.46941 10.0295 8.5477 9.97316 8.62599C9.91685 8.70428 9.85116 8.79178 9.79485 8.87929C9.73854 8.96679 9.701 9.01745 9.65877 9.09114C9.61654 9.16482 9.57431 9.23851 9.53208 9.30759L9.38661 9.57931C9.34438 9.67142 9.30215 9.75892 9.26461 9.85103L9.19422 10.0122C9.19422 10.0583 9.16138 10.1043 9.14261 10.1458V10.1734L9.54615 10.5879L10.4096 11.4629C10.3634 11.72 10.3383 11.9802 10.3345 12.2412V12.3195C10.3292 12.5117 10.337 12.704 10.3579 12.8952L9.46638 13.738L9.04407 14.1341V14.1617L9.09099 14.2998C9.09099 14.3551 9.13322 14.4104 9.15199 14.461C9.36885 15.0006 9.66443 15.5063 10.0295 15.9624L10.1327 16.1006C10.1702 16.142 10.2078 16.1881 10.25 16.2295L10.8131 16.0914L12.0191 15.8012C12.193 15.9435 12.3764 16.0742 12.5681 16.1927L12.6197 16.2249L12.6713 16.2525C12.8675 16.363 13.0714 16.46 13.2813 16.5427L13.5816 17.7263L13.7224 18.2835H13.7505L13.896 18.3112C13.9531 18.3248 14.0111 18.3341 14.0696 18.3388C14.1682 18.3388 14.2714 18.371 14.3699 18.3802H15.3319C15.4914 18.3802 15.651 18.3572 15.8011 18.3388H15.9794L16.1202 18.3158H16.1296L16.2938 17.7631L16.6317 16.5933C16.8215 16.5258 17.0065 16.4458 17.1854 16.3539C17.4456 16.2217 17.6937 16.0676 17.9268 15.8933L19.114 16.2249L19.6771 16.3861V16.3631L19.7709 16.2571L19.8835 16.1236C19.9821 16.0038 20.0759 15.8795 20.1698 15.7506L20.2448 15.6354L20.3856 15.4236C20.5505 15.1831 20.6964 14.9306 20.822 14.6683C20.822 14.6176 20.8689 14.5624 20.8877 14.5117L20.9393 14.3781V14.3505L20.5311 13.936L19.663 13.061ZM17.7203 13.8485C17.4001 14.3714 16.9291 14.7893 16.3669 15.0496C15.8047 15.3098 15.1765 15.4006 14.5618 15.3106C13.947 15.2206 13.3732 14.9537 12.9129 14.5437C12.4526 14.1337 12.1265 13.599 11.9758 13.0071C11.825 12.4153 11.8564 11.7929 12.0659 11.2185C12.2755 10.6442 12.6538 10.1437 13.1531 9.7803C13.6523 9.41691 14.2502 9.20693 14.871 9.17689C15.4918 9.14685 16.1078 9.29811 16.6411 9.61155C17.3562 10.0333 17.8716 10.7164 18.0739 11.5109C18.2763 12.3053 18.1491 13.1461 17.7203 13.8485Z" fill="white"/>
</svg>
