<svg width="16" height="16" viewBox="0 0 16 16" fill="none" xmlns="http://www.w3.org/2000/svg">
<path d="M7.902 6.608C7.122 6.608 6.488 7.232 6.488 8C6.488 8.768 7.122 9.392 7.902 9.392C8.682 9.392 9.317 8.768 9.317 8C9.317 7.232 8.683 6.608 7.902 6.608ZM14 8.528V7.568H12.195C12.109 6.78033 11.8049 6.03228 11.317 5.408L12.634 4.112L11.951 3.44L10.683 4.688C10.052 4.18304 9.29104 3.86687 8.488 3.776V2H7.512V3.776C6.682 3.872 5.952 4.208 5.317 4.688L4.05 3.44L3.367 4.112L4.684 5.408C4.16852 6.01597 3.86088 6.7728 3.806 7.568H2V8.528H3.805C3.902 9.344 4.195 10.064 4.683 10.64L3.366 11.936L4.049 12.608L5.317 11.36C5.902 11.84 6.683 12.176 7.512 12.224V14H8.488V12.224C9.2846 12.1409 10.0435 11.8421 10.683 11.36L11.951 12.608L12.634 11.936L11.317 10.64C11.805 10.064 12.147 9.296 12.195 8.528H14ZM7.902 11.264C6.098 11.264 4.585 9.824 4.585 8C4.585 6.176 6.049 4.736 7.902 4.736C9.756 4.736 11.219 6.176 11.219 8C11.219 9.824 9.756 11.264 7.902 11.264Z" fill="white" stroke="white" stroke-width="0.3"/>
</svg>
