<svg width="23" height="25" viewBox="0 0 23 25" fill="none" xmlns="http://www.w3.org/2000/svg">
<path d="M6.01834 15.917H0.421671C0.140999 14.864 -0.000882083 13.7754 4.12589e-06 12.6818C4.12589e-06 11.5622 0.144393 10.4843 0.421671 9.44668H6.01834C5.92858 10.5224 5.88551 11.6019 5.88928 12.6818C5.88928 13.7598 5.92761 14.8525 6.02089 15.917H6.01834ZM6.29561 18.3363C6.624 20.5889 7.176 22.6359 7.912 24.1829C5.08543 23.2006 2.73024 21.1053 1.34039 18.3363H6.29561ZM7.912 1.1794C7.176 2.72775 6.624 4.77475 6.29561 7.02738H1.34039C2.73024 4.25837 5.08543 2.163 7.912 1.18074V1.1794ZM14.3648 18.3363C13.7348 22.2757 12.4992 24.5014 11.6712 24.7783H11.3288C10.5008 24.5014 9.26517 22.2757 8.63523 18.3363H14.3648ZM14.3648 7.02738H8.63523C9.26517 3.08796 10.5008 0.862203 11.3288 0.585327H11.6712C12.4992 0.862203 13.7348 3.08796 14.3648 7.02738ZM14.6817 9.44668C14.7583 10.4413 14.812 11.5206 14.812 12.6818C14.812 13.8296 14.7596 14.9076 14.6804 15.917H8.31961C8.23298 14.841 8.18907 13.7617 8.188 12.6818C8.188 11.534 8.24039 10.4561 8.31961 9.44668H14.6804H14.6817ZM16.7044 18.3363H21.6596C20.2698 21.1053 17.9146 23.2006 15.088 24.1829C15.824 22.6359 16.376 20.5889 16.7044 18.3363ZM16.7044 7.02738C16.376 4.77475 15.824 2.72775 15.088 1.18074C17.9146 2.163 20.2698 4.25837 21.6596 7.02738H16.7044ZM23 12.6818C23 13.8014 22.8556 14.8794 22.5783 15.917H16.9817C17.0724 14.8659 17.112 13.7745 17.112 12.6818C17.112 11.6039 17.0737 10.5112 16.9804 9.44668H22.5796C22.8556 10.4843 23 11.5622 23 12.6818Z" fill="white"/>
</svg>
