<svg width="23" height="23" viewBox="0 0 23 23" fill="none" xmlns="http://www.w3.org/2000/svg">
<path d="M13.8959 4.31246C11.8834 4.31246 10.1584 5.55829 9.48758 7.37913C10.1584 7.37913 10.8292 7.57079 11.4043 7.85829C11.8834 6.89996 12.8418 6.22913 13.8959 6.22913C15.4293 6.22913 16.6751 7.47496 16.6751 9.00829C16.6751 10.1583 16.0042 11.1166 15.0459 11.5C15.3334 12.075 15.4293 12.7458 15.5251 13.4166C17.3459 12.7458 18.5918 11.0208 18.5918 9.00829C18.6876 6.42079 16.5793 4.31246 13.8959 4.31246ZM9.00842 11.2125C10.5417 11.2125 11.7876 12.4583 11.7876 13.9916C11.7876 15.525 10.5417 16.7708 9.00842 16.7708C7.47508 16.7708 6.22925 15.525 6.22925 13.9916C6.22925 12.4583 7.47508 11.2125 9.00842 11.2125ZM9.00842 9.29579C6.42092 9.29579 4.31258 11.4041 4.31258 13.9916C4.31258 16.5791 6.42092 18.6875 9.00842 18.6875C11.5959 18.6875 13.7043 16.5791 13.7043 13.9916C13.7043 11.4041 11.5959 9.29579 9.00842 9.29579ZM19.5501 14.8541V19.6458H14.7584V17.7291H17.6334V14.8541H19.5501ZM3.35425 3.35413H8.14592V5.27079H5.27092V8.14579H3.35425V3.35413Z" fill="white"/>
<path d="M19.5501 19.6458H14.7584V17.7291H17.6334V14.8541H19.5501V19.6458ZM8.14592 3.35413V5.27079H5.27092V8.14579H3.35425V3.35413H8.14592Z" fill="white"/>
</svg>
